<svg xmlns="http://www.w3.org/2000/svg" viewBox="0 0 500 500"><defs><style>.cls-1{fill:#e56e1f;}.cls-2{fill:#ffec7d;}.cls-3,.cls-5,.cls-6{stroke:#000;}.cls-3,.cls-6{stroke-miterlimit:10;}.cls-4{fill:#fff;}.cls-5,.cls-6{fill:none;stroke-linecap:round;stroke-width:3px;}.cls-5{stroke-linejoin:round;}</style></defs><title>cat</title><g id="Layer_3" data-name="Layer 3"><circle class="cls-1" cx="237.5" cy="268.5" r="220.5"/></g><g id="Layer_1" data-name="Layer 1"><path class="cls-1" d="M48.36,24.4l6.17,124.45A9,9,0,0,0,68.42,156L173.19,88.26a9,9,0,0,0-.79-15.6L61.46,15.93A9,9,0,0,0,48.36,24.4Z"/><path class="cls-2" d="M63,51.21,65.07,93.8a10.71,10.71,0,0,0,16.51,8.46l35.86-23.17a10.71,10.71,0,0,0-.94-18.53l-38-19.42A10.72,10.72,0,0,0,63,51.21Z"/><path class="cls-1" d="M431.3,24.4l-6.17,124.45A9,9,0,0,1,411.24,156L306.47,88.26a9,9,0,0,1,.79-15.6L418.19,15.93A9,9,0,0,1,431.3,24.4Z"/><path class="cls-2" d="M416.7,51.21,414.58,93.8a10.71,10.71,0,0,1-16.51,8.46L362.22,79.09a10.71,10.71,0,0,1,.94-18.53l38-19.42A10.72,10.72,0,0,1,416.7,51.21Z"/><circle class="cls-3" cx="164.75" cy="232.15" r="40.61"/><circle class="cls-4" cx="179.31" cy="216.06" r="9.19"/><circle cx="316.95" cy="232.15" r="40.61"/><circle class="cls-4" cx="331.51" cy="216.06" r="9.19"/><path class="cls-5" d="M196.62,314.27s36,5.69,46.75-26.87c0,0,2.74,33.71,40.05,31.8"/><path class="cls-5" d="M208.74,314.33s17.28,124.83,60.33,3.95"/><polygon class="cls-2" points="94.49 239.45 98.67 247.92 108.01 249.28 101.25 255.87 102.84 265.18 94.49 260.78 86.13 265.18 87.72 255.87 80.96 249.28 90.31 247.92 94.49 239.45"/><polygon class="cls-2" points="116.42 268.76 119.1 274.2 125.1 275.07 120.76 279.3 121.78 285.27 116.42 282.45 111.06 285.27 112.08 279.3 107.75 275.07 113.74 274.2 116.42 268.76"/><path class="cls-6" d="M322.16,323.51s57.4-16.27,95.66-4.79"/><path class="cls-6" d="M317.28,349.28s59.31,6.41,90.5,31.38"/><path class="cls-6" d="M153.7,323.51S96.3,307.24,58,318.72"/><path class="cls-6" d="M158.58,349.28s-59.31,6.41-90.5,31.38"/></g></svg>