<svg id="Layer_1" data-name="Layer 1" xmlns="http://www.w3.org/2000/svg" viewBox="0 0 241.53 397.81"><defs><style>.cls-1{fill:#66230e;}.cls-1,.cls-2,.cls-3{stroke:#000;stroke-miterlimit:10;stroke-width:0.5px;}.cls-2{fill:#ff2c46;}.cls-3{fill:#fffbfa;}.cls-4{fill:#fff;}</style></defs><title>cherries</title><path class="cls-1" d="M94.82,18.79C78.23,37.67,69.72,61,67,86c-.49,4.47,4.87,4.32,5.36-.12C74.86,62.89,84,40,105,25,108.65,22.39,97.8,15.39,94.82,18.79Z" transform="translate(-29.58 -17.63)"/><path class="cls-2" d="M123.15,82.68c-11.29-7-25.82-9.63-39.77-4.43a49,49,0,0,0-12.73,7.06C57.52,87.2,44.78,95,37.84,106.47,9.2,153.8,63,204.12,110,186.64,153.94,170.32,165.59,109,123.15,82.68Z" transform="translate(-29.58 -17.63)"/><path class="cls-3" d="M106.93,87.12A28.22,28.22,0,0,0,96,85c-4.5,0-4.51,7,0,7a23.19,23.19,0,0,1,9.07,1.87c1.74.73,3.85-.78,4.31-2.44C109.93,89.41,108.68,87.86,106.93,87.12Z" transform="translate(-29.58 -17.63)"/><path class="cls-3" d="M115.5,93c-4.5,0-4.51,7,0,7S120,93,115.5,93Z" transform="translate(-29.58 -17.63)"/><path d="M62,116c-7.72,0-7.73,12,0,12S69.73,116,62,116Z" transform="translate(-29.58 -17.63)"/><path d="M87,105c-7.72,0-7.73,12,0,12S94.73,105,87,105Z" transform="translate(-29.58 -17.63)"/><path class="cls-4" d="M62.5,118a1,1,0,0,0,0,2A1,1,0,0,0,62.5,118Z" transform="translate(-29.58 -17.63)"/><path class="cls-4" d="M87.5,106.5a1,1,0,0,0,0,2A1,1,0,0,0,87.5,106.5Z" transform="translate(-29.58 -17.63)"/><path d="M92.57,129.83c-1-2.59-3.66-3.83-6.13-4.66-1.22-.41-1.75,1.52-.53,1.93a8.32,8.32,0,0,1,4.21,2.51c1.36,1.79,1,4.26-1.38,4.86a6.53,6.53,0,0,1-7.66-3.77c-.42-1.11-2.12-.72-2,.32a.92.92,0,0,0,0,1,4.79,4.79,0,0,1-3.59,7.29c-1.7.13-4-.67-4.45-2.5-.43-1.64.75-4,1.43-5.38.55-1.16-1.17-2.17-1.73-1-1.06,2.21-2.54,5.31-1.31,7.73a6.39,6.39,0,0,0,6.06,3.16,6.63,6.63,0,0,0,6.23-6.55c2.67,2.15,6.59,2.95,9.48.8A4.79,4.79,0,0,0,92.57,129.83Z" transform="translate(-29.58 -17.63)"/><path class="cls-1" d="M97.82,243.79C81.23,262.67,72.72,286,70,311c-.49,4.47,4.87,4.32,5.36-.12C77.86,287.89,87,265,108,250,111.65,247.39,100.8,240.39,97.82,243.79Z" transform="translate(-29.58 -17.63)"/><path class="cls-2" d="M126.15,307.68c-11.29-7-25.82-9.63-39.77-4.43a49,49,0,0,0-12.73,7.06C60.52,312.2,47.78,320,40.84,331.47,12.2,378.8,66,429.12,113,411.64,156.94,395.32,168.59,334,126.15,307.68Z" transform="translate(-29.58 -17.63)"/><path class="cls-3" d="M109.93,312.12A28.22,28.22,0,0,0,99,310c-4.5,0-4.51,7,0,7a23.19,23.19,0,0,1,9.07,1.87c1.74.73,3.85-.78,4.31-2.44C112.93,314.41,111.68,312.86,109.93,312.12Z" transform="translate(-29.58 -17.63)"/><path class="cls-3" d="M118.5,318c-4.5,0-4.51,7,0,7S123,318,118.5,318Z" transform="translate(-29.58 -17.63)"/><path d="M65,341c-7.72,0-7.73,12,0,12S72.73,341,65,341Z" transform="translate(-29.58 -17.63)"/><path d="M90,330c-7.72,0-7.73,12,0,12S97.73,330,90,330Z" transform="translate(-29.58 -17.63)"/><path class="cls-4" d="M65.5,343a1,1,0,0,0,0,2A1,1,0,0,0,65.5,343Z" transform="translate(-29.58 -17.63)"/><path class="cls-4" d="M90.5,331.5a1,1,0,0,0,0,2A1,1,0,0,0,90.5,331.5Z" transform="translate(-29.58 -17.63)"/><path class="cls-1" d="M185.23,148.13c19.74,15.55,32.36,37,39.57,61,1.29,4.31-4,5.13-5.29.86-6.64-22.16-19.79-43-43.16-53.94C172.28,154.19,181.68,145.34,185.23,148.13Z" transform="translate(-29.58 -17.63)"/><path class="cls-2" d="M169,216.11c9.84-8.93,23.64-14.17,38.31-11.59a49.06,49.06,0,0,1,13.8,4.64c13.25-.53,27.2,4.82,36.11,14.84,36.76,41.33-7,100.6-56.43,91.95C154.63,307.88,132,249.67,169,216.11Z" transform="translate(-29.58 -17.63)"/><path class="cls-3" d="M185.74,217.53a28.08,28.08,0,0,1,10.36-4.07c4.43-.82,5.71,6.07,1.27,6.88a22.94,22.94,0,0,0-8.57,3.49c-1.59,1-3.93-.07-4.68-1.62C183.21,220.33,184.15,218.57,185.74,217.53Z" transform="translate(-29.58 -17.63)"/><path class="cls-3" d="M178.38,224.87c4.43-.82,5.71,6.06,1.27,6.88S173.94,225.69,178.38,224.87Z" transform="translate(-29.58 -17.63)"/><path d="M235.17,237.76c7.59-1.4,9.79,10.39,2.18,11.8S227.56,239.17,235.17,237.76Z" transform="translate(-29.58 -17.63)"/><path d="M208.59,231.49c7.59-1.41,9.78,10.39,2.18,11.8S201,232.89,208.59,231.49Z" transform="translate(-29.58 -17.63)"/><path class="cls-4" d="M235,239.82a1,1,0,0,1,.37,2A1,1,0,0,1,235,239.82Z" transform="translate(-29.58 -17.63)"/><path class="cls-4" d="M208.37,233.05a1,1,0,0,1,.36,2A1,1,0,0,1,208.37,233.05Z" transform="translate(-29.58 -17.63)"/><path d="M93.75,351.49c.06-1.27-1.93-1.27-2,0a9.47,9.47,0,0,1-16.41,6.18,1,1,0,0,0-1.41,1.41,11.45,11.45,0,0,0,15.68.9.94.94,0,0,0,.35.29c3.23,1.58,7.65.83,8.81-3A4.5,4.5,0,0,0,93.75,351.49Zm2.86,5.77c-1.08,2.09-3.67,2.22-5.58,1.32a11.65,11.65,0,0,0,2.45-5.05,1,1,0,0,0,.42,0C96.16,352.87,97.61,355.34,96.61,357.26Z" transform="translate(-29.58 -17.63)"/><path d="M218.94,252.68a.79.79,0,0,0-.84.09.86.86,0,0,0-.77-.37,5.47,5.47,0,1,0,1.61.28Zm-2.44,8.61c-4.14-.86-3.22-6.78.83-6.89a1,1,0,0,0,.58-.22,1,1,0,0,0,.5.43C222.17,256.19,220.59,262.13,216.5,261.29Z" transform="translate(-29.58 -17.63)"/></svg>