<svg id="Layer_1" data-name="Layer 1" xmlns="http://www.w3.org/2000/svg" xmlns:xlink="http://www.w3.org/1999/xlink" viewBox="0 0 297.23 506.65"><defs><style>.cls-1{fill:none;}.cls-2{fill:#dbb37a;stroke:#000;stroke-miterlimit:10;stroke-width:0.5px;}.cls-3{clip-path:url(#clip-path);}.cls-4{clip-path:url(#clip-path-2);}.cls-5{fill:#b58a57;}.cls-6{fill:#bf6819;}.cls-7{fill:#59281d;}</style><clipPath id="clip-path" transform="translate(8.48 10.59)"><path class="cls-1" d="M237.88,11.15a5.69,5.69,0,0,0-2.52-1.76c-5.82-2.1-19.68,2.8-26,3.51-39.9,4.47-80.13,1.95-119.92,4.73-5.37.37-67.81,3.11-67.86,7.17a5.35,5.35,0,0,0,.13,1.28C31.32,66.63,41,107.18,51.4,147.53c10.49,40.55,21.79,80.91,34.65,120.78s27.21,79.07,43.83,117.43c8.71,20.08,17.82,40,27.82,59.49q7.49,14.61,15.7,28.84c2.48,4.26,5,8.51,7.52,12.74.84,1.39,4.47,7.94,6,3.88a41.72,41.72,0,0,0,2.3-10.54c0-.12,0-.25,0-.37,4.76-21.62,9.47-43.24,13.67-65q6.41-33.14,11.68-66.47t9.44-66.79q4.16-33.47,7.18-67.06t4.93-67.27q1.91-33.69,2.69-67.43.62-26.68.52-53.36C239.4,21.91,240.83,14.75,237.88,11.15Z"/></clipPath><clipPath id="clip-path-2" transform="translate(8.48 10.59)"><path class="cls-1" d="M188.39,480A1930.33,1930.33,0,0,0,239.09,13.4c0-2.2-.17-4.65-1.76-6.17-1.43-1.37-3.59-1.55-5.57-1.64A955.34,955.34,0,0,0,112,7.47Q82.12,9.81,52.44,14C36,16.37,19.46,16,24.62,37.6c37.62,157,76.43,317,160.83,454.71Q186.94,486.13,188.39,480Z"/></clipPath></defs><title>conedrizzlecara</title><path class="cls-2" d="M237.88,11.15a5.69,5.69,0,0,0-2.52-1.76c-5.82-2.1-19.68,2.8-26,3.51-39.9,4.47-80.13,1.95-119.92,4.73-5.37.37-67.81,3.11-67.86,7.17a5.35,5.35,0,0,0,.13,1.28C31.32,66.63,41,107.18,51.4,147.53c10.49,40.55,21.79,80.91,34.65,120.78s27.21,79.07,43.83,117.43c8.71,20.08,17.82,40,27.82,59.49q7.49,14.61,15.7,28.84c2.48,4.26,5,8.51,7.52,12.74.84,1.39,4.47,7.94,6,3.88a41.72,41.72,0,0,0,2.3-10.54c0-.12,0-.25,0-.37,4.76-21.62,9.47-43.24,13.67-65q6.41-33.14,11.68-66.47t9.44-66.79q4.16-33.47,7.18-67.06t4.93-67.27q1.91-33.69,2.69-67.43.62-26.68.52-53.36C239.4,21.91,240.83,14.75,237.88,11.15Z" transform="translate(8.48 10.59)"/><g class="cls-3"><g class="cls-4"><path class="cls-5" d="M287.24,165.57q-32.35-41.85-66.34-82.36c17.46-12.13,35.17-23.86,53.25-35,7.27-4.48.6-16-6.71-11.48C248.72,48.26,230.39,60.43,212.33,73q-17.54-20.7-35.46-41.07L183,26.13c6.21-5.91-3.2-15.3-9.4-9.4L168,22Q154.38,6.66,140.52-8.5c-5.8-6.32-15.18,3.1-9.4,9.4q13.77,15,27.3,30.26L115.26,72.25,87.88,43.13q15-15.3,29.25-31.34c5.66-6.38-3.71-15.81-9.4-9.4q-14.12,15.88-29,31l-22.54-24c-5.87-6.24-15.26,3.17-9.4,9.4q11.28,12,22.57,24-5.06,5-10.2,9.93Q47.07,64.32,34.46,75.35c-1.53,1.33-3.22,2.92-5,4.63Q16.28,67,3,54.22c-6.18-5.91-15.6,3.48-9.4,9.4Q6.72,76.21,19.66,89c-6.9,6-14.44,11.21-21.38,11.59-8.51.46-8.57,13.76,0,13.29,11-.6,21.54-7.09,31.22-15.13q14.18,14.1,28.13,28.42a221.32,221.32,0,0,1-26,19.67c-7.21,4.57-.54,16.08,6.71,11.48a232.25,232.25,0,0,0,28.4-21.63Q79.54,150,92.12,163.43c-19.91,15.65-39.76,31.34-59.71,46.81-6.75,5.24,2.72,14.58,9.4,9.4,19.82-15.37,39.54-30.95,59.32-46.49q17.45,18.87,34.52,38.1-44.59,27.39-88.25,56.3c-7.1,4.71-.45,16.23,6.71,11.48q44.72-29.67,90.48-57.67,40.46,46.17,78.65,94.32c5.31,6.71,14.67-2.76,9.41-9.4Q195.47,259.35,156,214.33q23.79-14.43,47.85-28.41l55.47,59c5.88,6.24,15.27-3.17,9.41-9.4l-53.06-56.44q22.56-13,45.34-25.61,8.44,10.71,16.79,21.49C283.07,181.73,292.42,172.26,287.24,165.57ZM167.26,41.1q17.3,19.62,34.19,39.57-23.41,16.62-46.31,34L124.36,81.93ZM39.41,89.86c5.71-5.44,11-10.88,15.81-15.24C63.14,67.43,70.85,60,78.46,52.51l27.17,28.9-2.32,2.22C91.43,94.93,79.76,107,67.54,118.31Q53.59,104,39.41,89.86Zm37.21,37.91c10.66-9.94,20.95-20.33,31.41-30.28l6.71-6.39,29.74,31.63q-21,16.08-41.88,32.46Q89.72,141.39,76.62,127.77Zm70.53,76.42q-17.53-19.84-35.53-39.27,20.89-16.36,42-32.49l41,43.56Q170.73,189.9,147.15,204.19Zm59.2-35.05-42.1-44.78Q186.92,107.28,210,90.84q21.63,25.78,42.62,52.11Q229.37,155.83,206.35,169.14Z" transform="translate(8.48 10.59)"/></g></g><g class="cls-3"><path class="cls-6" d="M242,253.05c-5.08-4.58-10.51-8.94-17.44-10.08a21,21,0,0,0-18.3,6.14c-10.67,10.71-7.73,25-8.08,38.52-.12,4.55-.67,10.1-3.92,13.64-2,2.21-6.86,4.29-8.78,1.09-2.23-3.73-.62-10-.85-14.06a27.66,27.66,0,0,0-6.52-16.9,16.3,16.3,0,0,0-16.49-5.24c-6.72,1.88-10.87,8-12.83,14.34-1.7,5.54-.91,12.33-3.84,17.43-2.5,4.35-5.43.59-6.5-3.33-1.57-5.79-.2-12.32-.5-18.25-.37-7.3-1.83-14.73-5.49-21.15-5.93-10.4-18.23-17.35-30.3-14.59C87.14,244,82.9,259.53,82.43,273c-.6,17.32-.36,34.71-.53,52-.09,9.3,12.19,10.7,15.93,4.17,2.6,8.39,7.51,16.13,12.9,23.51a13.14,13.14,0,0,0,1.94,2.13q27.08,69.89,60.53,137.06c3.55,7.14,13.19,4.25,15.53-2a986.19,986.19,0,0,0,54.74-224.61,6,6,0,0,0-.16-2.21A7.3,7.3,0,0,0,242,253.05Z" transform="translate(8.48 10.59)"/></g><path class="cls-7" d="M140.12,321.88l-8-10c-1-1.28-3.17-1.05-4.24,0a3.06,3.06,0,0,0,0,4.24l8,10c1,1.28,3.17,1.05,4.24,0A3.06,3.06,0,0,0,140.12,321.88Z" transform="translate(8.48 10.59)"/><path class="cls-7" d="M166.49,376.41l-7,4c-3.36,1.92-.34,7.1,3,5.18l7-4C172.87,379.67,169.85,374.49,166.49,376.41Z" transform="translate(8.48 10.59)"/><path class="cls-7" d="M204.72,328.39l-5-7a3.09,3.09,0,0,0-4.11-1.08,3,3,0,0,0-1.07,4.1l5,7a3.09,3.09,0,0,0,4.11,1.08A3,3,0,0,0,204.72,328.39Z" transform="translate(8.48 10.59)"/><path class="cls-7" d="M186.59,432.49a3,3,0,0,0-4.1-1.08l-6,4a3.07,3.07,0,0,0-1.08,4.1,3,3,0,0,0,4.1,1.08l6-4A3.07,3.07,0,0,0,186.59,432.49Z" transform="translate(8.48 10.59)"/><path class="cls-7" d="M170.41,336.49l-5,9c-1.88,3.37,3.3,6.4,5.18,3l5-9C177.47,336.14,172.29,333.11,170.41,336.49Z" transform="translate(8.48 10.59)"/><path class="cls-7" d="M189.51,408.41l-7-5a3,3,0,0,0-4.1,1.08,3.06,3.06,0,0,0,1.08,4.1l7,5a3,3,0,0,0,4.1-1.08A3.06,3.06,0,0,0,189.51,408.41Z" transform="translate(8.48 10.59)"/><path class="cls-7" d="M146.51,346.41a3.07,3.07,0,0,0-4.1,1.08l-6,8c-1,1.29-.21,3.35,1.08,4.1a3.07,3.07,0,0,0,4.1-1.08l6-8C148.56,349.22,147.8,347.16,146.51,346.41Z" transform="translate(8.48 10.59)"/><path class="cls-7" d="M119.8,264.11a3.06,3.06,0,0,0-3.69,2.09l-4,10c-.61,1.52.66,3.28,2.09,3.69a3.06,3.06,0,0,0,3.69-2.09l4-10C122.5,266.28,121.23,264.52,119.8,264.11Z" transform="translate(8.48 10.59)"/><path class="cls-7" d="M192.77,362.78l-7.12,7.9c-2.58,2.86,1.65,7.11,4.25,4.24L197,367C199.59,364.16,195.36,359.9,192.77,362.78Z" transform="translate(8.48 10.59)"/><path class="cls-7" d="M175.37,300.69l-3.92-5.07c-1-1.28-3.19-1-4.24,0a3.09,3.09,0,0,0,0,4.24l3.92,5.07c1,1.28,3.2,1,4.24,0A3.08,3.08,0,0,0,175.37,300.69Z" transform="translate(8.48 10.59)"/><path class="cls-7" d="M158.47,403.57l-6.95-10c-2.18-3.15-7.38-.15-5.18,3l6.95,10C155.47,409.75,160.67,406.75,158.47,403.57Z" transform="translate(8.48 10.59)"/><path class="cls-7" d="M213.41,272.49l-7,11c-2.08,3.26,3.11,6.28,5.18,3l7-11C220.67,272.25,215.48,269.23,213.41,272.49Z" transform="translate(8.48 10.59)"/><path class="cls-7" d="M114.41,292.49q-3.5,5-7,10c-2.22,3.17,3,6.17,5.18,3q3.5-5,7-10C121.81,292.34,116.61,289.34,114.41,292.49Z" transform="translate(8.48 10.59)"/></svg>