<svg id="Layer_1" data-name="Layer 1" xmlns="http://www.w3.org/2000/svg" xmlns:xlink="http://www.w3.org/1999/xlink" viewBox="0 0 297.23 502.84"><defs><style>.cls-1{fill:none;}.cls-2{fill:#dbb37a;stroke:#000;stroke-miterlimit:10;stroke-width:0.5px;}.cls-3{clip-path:url(#clip-path);}.cls-4{clip-path:url(#clip-path-2);}.cls-5{fill:#b58a57;}</style><clipPath id="clip-path" transform="translate(23.48 10.59)"><path class="cls-1" d="M222.88,11.15a5.69,5.69,0,0,0-2.52-1.76c-5.82-2.1-19.68,2.8-26,3.51-39.9,4.47-80.13,1.95-119.92,4.73C69.08,18,6.64,20.74,6.59,24.8a5.35,5.35,0,0,0,.13,1.28C16.32,66.63,26,107.18,36.4,147.53c10.49,40.55,21.79,80.91,34.65,120.78s27.21,79.07,43.83,117.43c8.71,20.08,17.82,40,27.82,59.49q7.49,14.61,15.7,28.84c2.48,4.26,5,8.51,7.52,12.74.84,1.39,4.47,7.94,6,3.88a41.72,41.72,0,0,0,2.3-10.54c0-.12,0-.25,0-.37,4.76-21.62,9.47-43.24,13.67-65q6.41-33.14,11.68-66.47t9.44-66.79q4.16-33.47,7.18-67.06t4.93-67.27q1.91-33.69,2.69-67.43.62-26.68.52-53.36C224.4,21.91,225.83,14.75,222.88,11.15Z"/></clipPath><clipPath id="clip-path-2" transform="translate(23.48 10.59)"><path class="cls-1" d="M173.39,480A1930.33,1930.33,0,0,0,224.09,13.4c0-2.2-.17-4.65-1.76-6.17-1.43-1.37-3.59-1.55-5.57-1.64A955.34,955.34,0,0,0,97,7.47Q67.12,9.81,37.44,14C21,16.37,4.46,16,9.62,37.6c37.62,157,76.43,317,160.83,454.71Q171.94,486.13,173.39,480Z"/></clipPath></defs><title>coneplain</title><path class="cls-2" d="M222.88,11.15a5.69,5.69,0,0,0-2.52-1.76c-5.82-2.1-19.68,2.8-26,3.51-39.9,4.47-80.13,1.95-119.92,4.73C69.08,18,6.64,20.74,6.59,24.8a5.35,5.35,0,0,0,.13,1.28C16.32,66.63,26,107.18,36.4,147.53c10.49,40.55,21.79,80.91,34.65,120.78s27.21,79.07,43.83,117.43c8.71,20.08,17.82,40,27.82,59.49q7.49,14.61,15.7,28.84c2.48,4.26,5,8.51,7.52,12.74.84,1.39,4.47,7.94,6,3.88a41.72,41.72,0,0,0,2.3-10.54c0-.12,0-.25,0-.37,4.76-21.62,9.47-43.24,13.67-65q6.41-33.14,11.68-66.47t9.44-66.79q4.16-33.47,7.18-67.06t4.93-67.27q1.91-33.69,2.69-67.43.62-26.68.52-53.36C224.4,21.91,225.83,14.75,222.88,11.15Z" transform="translate(23.48 10.59)"/><g class="cls-3"><g class="cls-4"><path class="cls-5" d="M272.24,165.57q-32.36-41.85-66.34-82.36c17.46-12.13,35.17-23.86,53.25-35,7.27-4.48.6-16-6.71-11.48C233.72,48.26,215.39,60.43,197.33,73q-17.54-20.7-35.46-41.07L168,26.13c6.21-5.91-3.2-15.3-9.4-9.4L153,22Q139.38,6.66,125.52-8.5c-5.8-6.32-15.18,3.1-9.4,9.4q13.77,15,27.3,30.26L100.26,72.25,72.88,43.13q15-15.3,29.25-31.34c5.66-6.38-3.71-15.81-9.4-9.4q-14.12,15.88-29,31l-22.54-24c-5.87-6.24-15.26,3.17-9.4,9.4q11.28,12,22.57,24-5.05,5-10.2,9.93Q32.07,64.32,19.46,75.35c-1.53,1.33-3.22,2.92-5,4.63Q1.28,67-12,54.22c-6.18-5.91-15.6,3.48-9.4,9.4Q-8.28,76.21,4.66,89c-6.9,6-14.44,11.21-21.38,11.59-8.51.46-8.57,13.76,0,13.29,11-.6,21.54-7.09,31.22-15.13q14.17,14.1,28.13,28.42a221.32,221.32,0,0,1-26,19.67c-7.21,4.57-.54,16.08,6.71,11.48a232.25,232.25,0,0,0,28.4-21.63Q64.54,150,77.12,163.43c-19.91,15.65-39.76,31.34-59.71,46.81-6.75,5.24,2.72,14.58,9.4,9.4,19.82-15.37,39.54-30.95,59.32-46.49q17.45,18.87,34.52,38.1-44.59,27.39-88.25,56.3c-7.1,4.71-.45,16.23,6.71,11.48q44.72-29.67,90.48-57.67,40.46,46.17,78.65,94.32c5.31,6.71,14.67-2.76,9.41-9.4Q180.47,259.35,141,214.33q23.79-14.43,47.85-28.41l55.47,59c5.88,6.24,15.27-3.17,9.41-9.4l-53.06-56.44q22.56-13,45.34-25.61,8.44,10.71,16.79,21.49C268.07,181.73,277.42,172.26,272.24,165.57ZM152.26,41.1q17.3,19.62,34.19,39.57-23.41,16.62-46.31,34L109.36,81.93ZM24.41,89.86c5.71-5.44,11-10.88,15.81-15.24C48.14,67.43,55.85,60,63.46,52.51l27.17,28.9-2.32,2.22C76.43,94.93,64.76,107,52.54,118.31Q38.59,104,24.41,89.86Zm37.21,37.91C72.28,117.83,82.57,107.44,93,97.49l6.71-6.39,29.74,31.63q-21,16.08-41.88,32.46Q74.72,141.39,61.62,127.77Zm70.53,76.42q-17.54-19.84-35.53-39.27,20.89-16.36,42-32.49l41,43.56Q155.73,189.9,132.15,204.19Zm59.2-35.05-42.1-44.78Q171.92,107.28,195,90.84q21.63,25.78,42.62,52.11Q214.37,155.83,191.35,169.14Z" transform="translate(23.48 10.59)"/></g></g></svg>