<svg id="Layer_1" data-name="Layer 1" xmlns="http://www.w3.org/2000/svg" xmlns:xlink="http://www.w3.org/1999/xlink" viewBox="0 0 269.66 334.31"><defs><style>.cls-1{fill:none;}.cls-2{fill:#a05530;stroke:#000;stroke-miterlimit:10;stroke-width:0.5px;}.cls-3{clip-path:url(#clip-path);}.cls-4{fill:#723519;}</style><clipPath id="clip-path" transform="translate(-15.67 -46.96)"><rect class="cls-1" x="112.5" y="30.5" width="76" height="386" rx="12.67" ry="12.67" transform="translate(150.86 -45.95) rotate(34.03)"/></clipPath></defs><title>flake</title><path class="cls-2" d="M279.5,77.73l-42-28.35a12.66,12.66,0,0,0-17.59,3.41L18.09,351.68a12.67,12.67,0,0,0,3.41,17.59l15.8,10.67c3.09-11.75,14.84-20.74,27-20.74.53,0,1,0,1.56.07a2.45,2.45,0,0,1,0-.27c-.68-15,13.26-27.8,27.8-27.8a27.06,27.06,0,0,1,22.19,11.49L282.91,95.32A12.67,12.67,0,0,0,279.5,77.73Z" transform="translate(-15.67 -46.96)"/><g class="cls-3"><path class="cls-4" d="M245.74,55.09c-17,17.39-15.9,43.54-27.36,63.88-6.77,12-17.93,20.42-28.56,28.82C180,155.6,170.94,164,163.2,173.94c-15.72,20.19-26.34,43.66-38.56,66-6.33,11.55-13.11,22.92-21.22,33.31-8.47,10.85-18.83,19.87-28,30.07C64.8,315.14,59,329,51.74,342.86,43.91,357.79,32,368.76,19.4,379.6c-1,.84.44,2.24,1.42,1.41,10.4-8.92,20.93-18,28.37-29.69,7.72-12.09,12-26,20.42-37.72S89.4,292.51,99,281.69a192.38,192.38,0,0,0,21.32-30.06c13-22,23.2-45.65,37.53-66.89a143.47,143.47,0,0,1,25.91-29.45c10.13-8.6,21.48-16,30.07-26.27,17.65-21.09,14-52.72,33.35-72.51C248.06,55.58,246.64,54.17,245.74,55.09Z" transform="translate(-15.67 -46.96)"/><path class="cls-4" d="M80.81,334.54c4.47-9.7,9.56-19,19-24.84,1.1-.68.09-2.41-1-1.73-10.67,6.61-16,17.43-21,28.4A29.38,29.38,0,0,1,80.81,334.54Z" transform="translate(-15.67 -46.96)"/><path class="cls-4" d="M165,195.65c-12.5,12.74-14.2,31-20.36,46.95-7.51,19.48-23.43,33.42-38.88,46.67-1,.84.44,2.25,1.41,1.41,14.45-12.39,29.53-25.43,37.56-43.12,7.56-16.66,8.32-36.87,21.69-50.5A1,1,0,0,0,165,195.65Z" transform="translate(-15.67 -46.96)"/><path class="cls-4" d="M282.26,79.83c-6.79,13.48-20.44,20.44-32.71,28.1a112.12,112.12,0,0,0-31.17,29.22c-9.89,13.4-18.71,27.75-27.39,41.94-8.93,14.6-17.11,29.63-23.45,45.54-.47,1.2,1.46,1.72,1.93.53,6.5-16.31,15-31.68,24.2-46.61,8.7-14.12,17.45-28.48,27.44-41.73,9.77-13,21.33-22.23,35.08-30.61,10.86-6.63,21.9-13.66,27.8-25.37C284.57,79.69,282.84,78.68,282.26,79.83Z" transform="translate(-15.67 -46.96)"/><path class="cls-4" d="M260.74,87.4a24,24,0,0,0-14.44,14.1c-.47,1.2,1.47,1.72,1.93.53a21.83,21.83,0,0,1,13-12.7C262.48,88.89,262,87,260.74,87.4Z" transform="translate(-15.67 -46.96)"/><path class="cls-4" d="M250.74,72.45l-7.37,10c-.77,1,1,2,1.72,1q3.69-5,7.37-10C253.23,72.42,251.49,71.42,250.74,72.45Z" transform="translate(-15.67 -46.96)"/><path class="cls-4" d="M241.33,47.91C217.66,60.05,219.5,92,202.47,109.8c-9.2,9.63-20.56,16.72-29.45,26.74s-16.19,21.22-23.48,32.38c-.7,1.08,1,2.08,1.73,1,7.51-11.5,15-23.07,24.32-33.25,8.6-9.47,19.48-16.28,28.3-25.46,16.92-17.64,15.2-49.66,38.45-61.58C243.48,49.05,242.47,47.33,241.33,47.91Z" transform="translate(-15.67 -46.96)"/><path class="cls-4" d="M149.39,268.09a247.38,247.38,0,0,0-47.62,64.33c.63.2,1.26.42,1.88.66a245.64,245.64,0,0,1,47.15-63.57C151.73,268.61,150.31,267.2,149.39,268.09Z" transform="translate(-15.67 -46.96)"/></g></svg>