<svg xmlns="http://www.w3.org/2000/svg" viewBox="0 0 500 500"><defs><style>.cls-1{fill:#fff;}.cls-2{fill:#ffb3b3;}</style></defs><title>panda</title><g id="Layer_3" data-name="Layer 3"><circle cx="91.5" cy="91.5" r="82.5"/><circle cx="406.5" cy="92.5" r="82.5"/><circle class="cls-1" cx="247.5" cy="258.5" r="230.5"/></g><g id="Layer_1" data-name="Layer 1"><circle cx="144.5" cy="227.5" r="79.5"/><circle class="cls-1" cx="139" cy="228" r="36"/><circle cx="150.5" cy="220.5" r="26.5"/><polygon class="cls-1" points="155 201.1 156.73 204.62 160.61 205.18 157.8 207.91 158.47 211.77 155 209.95 151.53 211.77 152.2 207.91 149.39 205.18 153.27 204.62 155 201.1"/><polygon class="cls-1" points="163.95 208 165.05 210.23 167.51 210.59 165.73 212.32 166.15 214.77 163.95 213.61 161.75 214.77 162.17 212.32 160.39 210.59 162.85 210.23 163.95 208"/><circle cx="357.5" cy="227.5" r="79.5"/><circle class="cls-1" cx="352" cy="228" r="36"/><circle cx="363.5" cy="220.5" r="26.5"/><polygon class="cls-1" points="368 201.1 369.73 204.62 373.61 205.18 370.8 207.91 371.47 211.77 368 209.95 364.53 211.77 365.2 207.91 362.39 205.18 366.27 204.62 368 201.1"/><polygon class="cls-1" points="376.95 208 378.05 210.23 380.51 210.59 378.73 212.32 379.15 214.77 376.95 213.61 374.75 214.77 375.17 212.32 373.39 210.59 375.85 210.23 376.95 208"/><ellipse cx="252.5" cy="302.5" rx="39.5" ry="27.5"/><circle class="cls-2" cx="131" cy="326" r="32"/><circle class="cls-2" cx="358" cy="326" r="32"/></g></svg>