<svg id="Layer_1" data-name="Layer 1" xmlns="http://www.w3.org/2000/svg" viewBox="0 0 273.49 474.39"><defs><style>.cls-1{fill:#fff;}.cls-1,.cls-2,.cls-3,.cls-4,.cls-5,.cls-6{stroke:#000;stroke-miterlimit:10;stroke-width:0.5px;}.cls-2{fill:#fcaefa;}.cls-3{fill:#f9f3af;}.cls-4{fill:#d18aff;}.cls-5{fill:#9ccef7;}.cls-6{fill:#ff5e33;}</style></defs><title>sprinkles</title><path class="cls-1" d="M171.59,432.49a3,3,0,0,0-4.1-1.08l-6,4a3.07,3.07,0,0,0-1.08,4.1,3,3,0,0,0,4.1,1.08l6-4A3.07,3.07,0,0,0,171.59,432.49Z" transform="translate(-16.77 -9.68)"/><path class="cls-2" d="M155.41,336.49l-5,9c-1.88,3.37,3.3,6.4,5.18,3l5-9C162.47,336.14,157.29,333.11,155.41,336.49Z" transform="translate(-16.77 -9.68)"/><path class="cls-2" d="M174.51,408.41l-7-5a3,3,0,0,0-4.1,1.08,3.06,3.06,0,0,0,1.08,4.1l7,5a3,3,0,0,0,4.1-1.08A3.06,3.06,0,0,0,174.51,408.41Z" transform="translate(-16.77 -9.68)"/><path class="cls-2" d="M131.51,346.41a3.07,3.07,0,0,0-4.1,1.08l-6,8c-1,1.29-.21,3.35,1.08,4.1a3.07,3.07,0,0,0,4.1-1.08l6-8C133.56,349.22,132.8,347.16,131.51,346.41Z" transform="translate(-16.77 -9.68)"/><path class="cls-2" d="M104.8,264.11a3.06,3.06,0,0,0-3.69,2.09l-4,10c-.61,1.52.66,3.28,2.09,3.69a3.06,3.06,0,0,0,3.69-2.09l4-10C107.5,266.28,106.23,264.52,104.8,264.11Z" transform="translate(-16.77 -9.68)"/><path class="cls-2" d="M177.77,362.78l-7.12,7.9c-2.58,2.86,1.65,7.11,4.25,4.24L182,367C184.59,364.16,180.36,359.9,177.77,362.78Z" transform="translate(-16.77 -9.68)"/><path class="cls-2" d="M47.77,348.78l-7.12,7.9c-2.58,2.86,1.65,7.11,4.25,4.24L52,353C54.59,350.16,50.36,345.9,47.77,348.78Z" transform="translate(-16.77 -9.68)"/><path class="cls-3" d="M160.37,300.69l-3.92-5.07c-1-1.28-3.19-1-4.24,0a3.09,3.09,0,0,0,0,4.24l3.92,5.07c1,1.28,3.2,1,4.24,0A3.08,3.08,0,0,0,160.37,300.69Z" transform="translate(-16.77 -9.68)"/><path class="cls-3" d="M143.47,403.57l-6.95-10c-2.18-3.15-7.38-.15-5.18,3l6.95,10C140.47,409.75,145.67,406.75,143.47,403.57Z" transform="translate(-16.77 -9.68)"/><path class="cls-3" d="M198.41,272.49l-7,11c-2.08,3.26,3.11,6.28,5.18,3l7-11C205.67,272.25,200.48,269.23,198.41,272.49Z" transform="translate(-16.77 -9.68)"/><path class="cls-3" d="M99.41,292.49q-3.5,5-7,10c-2.22,3.17,3,6.17,5.18,3q3.5-5,7-10C106.81,292.34,101.61,289.34,99.41,292.49Z" transform="translate(-16.77 -9.68)"/><path class="cls-4" d="M177.41,230.49q-3.49,5-7,10c-2.22,3.17,3,6.17,5.18,3q3.49-5,7-10C184.81,230.34,179.61,227.34,177.41,230.49Z" transform="translate(-16.77 -9.68)"/><path class="cls-4" d="M109.59,216.49l-8-15c-1.82-3.41-7-.39-5.18,3l8,15C106.23,222.92,111.41,219.9,109.59,216.49Z" transform="translate(-16.77 -9.68)"/><path class="cls-4" d="M49.59,111.49l-8-15c-1.82-3.41-7-.39-5.18,3l8,15C46.23,117.92,51.41,114.9,49.59,111.49Z" transform="translate(-16.77 -9.68)"/><path class="cls-4" d="M97,381v8c0,3.86,6,3.87,6,0v-8C103,377.14,97,377.13,97,381Z" transform="translate(-16.77 -9.68)"/><path class="cls-4" d="M32.78,279.52l-1.46,7.87c-.7,3.8,5.2,4.89,5.9,1.09l1.46-7.87C39.38,276.81,33.48,275.72,32.78,279.52Z" transform="translate(-16.77 -9.68)"/><path class="cls-4" d="M129.51,440.41l-16-7c-3.5-1.53-6.56,3.63-3,5.18l16,7C130,447.12,133.05,442,129.51,440.41Z" transform="translate(-16.77 -9.68)"/><path class="cls-4" d="M275.51,147.41l-16-7c-3.5-1.53-6.56,3.63-3,5.18l16,7C276,154.12,279.05,149,275.51,147.41Z" transform="translate(-16.77 -9.68)"/><path class="cls-4" d="M203.41,389.61l-5-7a3.1,3.1,0,0,0-4.11-1.08,3,3,0,0,0-1.08,4.11l5,7a3.1,3.1,0,0,0,4.11,1.08A3,3,0,0,0,203.41,389.61Z" transform="translate(-16.77 -9.68)"/><path class="cls-4" d="M256.42,467.12l4.54-7.31a3.09,3.09,0,0,0-.56-4.2,3,3,0,0,0-4.21.56l-4.54,7.3a3.09,3.09,0,0,0,.56,4.21A3,3,0,0,0,256.42,467.12Z" transform="translate(-16.77 -9.68)"/><path class="cls-4" d="M222.77,89.35,215,79.15a3.11,3.11,0,0,0-4.11-1.07c-1.27.72-2,2.81-1.07,4.1l7.74,10.2a3.1,3.1,0,0,0,4.1,1.07C223,92.73,223.75,90.64,222.77,89.35Z" transform="translate(-16.77 -9.68)"/><path class="cls-4" d="M156.29,55.42l-4,7c-1.91,3.37,3.27,6.39,5.18,3l4-7C163.39,55.09,158.2,52.06,156.29,55.42Z" transform="translate(-16.77 -9.68)"/><path class="cls-4" d="M184.12,148.88a17.27,17.27,0,0,1-5.23-8.68c-.95-3.74-6.74-2.15-5.78,1.6a22.89,22.89,0,0,0,6.77,11.32C182.73,155.72,187,151.49,184.12,148.88Z" transform="translate(-16.77 -9.68)"/><path class="cls-4" d="M142.11,110.2q-2.51,8-5,16c-1.16,3.7,4.63,5.28,5.78,1.6q2.51-8,5-16C149.05,108.1,143.26,106.52,142.11,110.2Z" transform="translate(-16.77 -9.68)"/><path class="cls-4" d="M99.11,40.2q-2,5.5-4,11c-1.32,3.64,4.47,5.2,5.78,1.6s2.67-7.34,4-11S100.42,36.6,99.11,40.2Z" transform="translate(-16.77 -9.68)"/><path class="cls-4" d="M118.51,163.41l-10-6c-3.32-2-6.34,3.19-3,5.18l10,6C118.81,170.58,121.83,165.4,118.51,163.41Z" transform="translate(-16.77 -9.68)"/><path class="cls-3" d="M182,184.92a11.79,11.79,0,0,1-9-2.92c-2.87-2.56-7.12,1.67-4.24,4.25A17.82,17.82,0,0,0,182,190.92C185.82,190.64,185.85,184.64,182,184.92Z" transform="translate(-16.77 -9.68)"/><path class="cls-3" d="M190.82,94a3.1,3.1,0,0,0-3-3c-1.47,0-3.2,1.38-3,3,.32,2.67.65,5.34,1,8a3.1,3.1,0,0,0,3,3c1.47,0,3.2-1.39,3-3C191.47,99.36,191.14,96.69,190.82,94Z" transform="translate(-16.77 -9.68)"/><path class="cls-3" d="M123.85,80.13q-2.44,8.52-4.9,17c-1.07,3.71,4.72,5.3,5.79,1.59q2.45-8.5,4.9-17C130.71,78,124.92,76.42,123.85,80.13Z" transform="translate(-16.77 -9.68)"/><path class="cls-3" d="M277.66,65.63,262,74c-3.42,1.82-.52,7.08,2.89,5.26l15.62-8.36C284,69.07,281.07,63.81,277.66,65.63Z" transform="translate(-16.77 -9.68)"/><path class="cls-3" d="M60,48.93l16.44,6.61C80,57,82.18,51.39,78.6,50L62.16,43.34C58.57,41.89,56.4,47.49,60,48.93Z" transform="translate(-16.77 -9.68)"/><path class="cls-3" d="M82.59,124.49l-5-7a3.08,3.08,0,0,0-4.1-1.08,3,3,0,0,0-1.08,4.1l5,7a3.08,3.08,0,0,0,4.1,1.08A3,3,0,0,0,82.59,124.49Z" transform="translate(-16.77 -9.68)"/><path class="cls-3" d="M151.59,256.49q-2.51-4-5-8c-2-3.27-7.23-.26-5.18,3q2.51,4,5,8C148.45,262.78,153.64,259.77,151.59,256.49Z" transform="translate(-16.77 -9.68)"/><path class="cls-3" d="M224.59,43.49a3.07,3.07,0,0,0-4.1-1.08l-9,4c-1.48.66-1.83,2.82-1.08,4.1a3.07,3.07,0,0,0,4.1,1.08l9-4C225,46.93,225.34,44.77,224.59,43.49Z" transform="translate(-16.77 -9.68)"/><path class="cls-3" d="M34.59,316.49a3.07,3.07,0,0,0-4.1-1.08l-9,4c-1.48.66-1.83,2.82-1.08,4.1a3.07,3.07,0,0,0,4.1,1.08l9-4C35,319.93,35.34,317.77,34.59,316.49Z" transform="translate(-16.77 -9.68)"/><path class="cls-3" d="M219.59,161.49l-6-9c-2.13-3.2-7.33-.2-5.18,3l6,9C216.54,167.71,221.74,164.71,219.59,161.49Z" transform="translate(-16.77 -9.68)"/><path class="cls-3" d="M219.51,239.41l-9-4a3.08,3.08,0,0,0-4.1,1.08c-.75,1.27-.41,3.44,1.08,4.1l9,4a3.08,3.08,0,0,0,4.1-1.08C221.34,242.24,221,240.07,219.51,239.41Z" transform="translate(-16.77 -9.68)"/><path class="cls-3" d="M209.11,320.86a3.08,3.08,0,0,0-4.25,0A11,11,0,0,1,197,323c-3.85-.3-3.83,5.7,0,6a17.05,17.05,0,0,0,12.11-3.92C210.39,324.09,210.15,321.93,209.11,320.86Z" transform="translate(-16.77 -9.68)"/><path class="cls-3" d="M290,330.38a3.07,3.07,0,0,0-3.53-2.35,11,11,0,0,1-7.75-2.55c-3-2.38-6.34,2.63-3.32,5a17.11,17.11,0,0,0,12.26,3.44C289.24,333.78,290.24,331.84,290,330.38Z" transform="translate(-16.77 -9.68)"/><path class="cls-3" d="M219.8,431.11l-13-4c-3.7-1.14-5.28,4.65-1.6,5.78l13,4C221.9,438,223.48,432.24,219.8,431.11Z" transform="translate(-16.77 -9.68)"/><path class="cls-3" d="M180.39,432q-.88,6.75-1.75,13.49c-.49,3.84,5.48,4.42,6,.59q.88-6.75,1.75-13.49C186.85,428.71,180.88,428.13,180.39,432Z" transform="translate(-16.77 -9.68)"/><path class="cls-3" d="M101.92,329.72c-1-1-3.25-1.29-4.25,0l-7,9a3.1,3.1,0,0,0,0,4.24c1,1,3.25,1.29,4.24,0q3.5-4.5,7-9A3.11,3.11,0,0,0,101.92,329.72Z" transform="translate(-16.77 -9.68)"/><path class="cls-2" d="M83.12,173.88l-8-7c-2.89-2.53-7.15,1.69-4.24,4.24l8,7C81.77,180.65,86,176.43,83.12,173.88Z" transform="translate(-16.77 -9.68)"/><path class="cls-2" d="M137.51,197.42l-9-5c-3.38-1.88-6.41,3.3-3,5.18l9,5C137.86,204.48,140.89,199.3,137.51,197.42Z" transform="translate(-16.77 -9.68)"/><path class="cls-2" d="M221.41,107.49l-4,8c-1.72,3.44,3.45,6.48,5.18,3l4-8C228.31,107.07,223.14,104,221.41,107.49Z" transform="translate(-16.77 -9.68)"/><path class="cls-2" d="M228.11,348.2q-2,5.51-4,11c-1.32,3.64,4.47,5.2,5.78,1.6s2.67-7.34,4-11S229.42,344.6,228.11,348.2Z" transform="translate(-16.77 -9.68)"/><path class="cls-2" d="M87.41,240.49q-2.5,5-5,10c-1.72,3.44,3.45,6.48,5.18,3s3.33-6.66,5-10S89.14,237,87.41,240.49Z" transform="translate(-16.77 -9.68)"/><path class="cls-2" d="M71.41,367.49q-4,8.49-8,17c-1.64,3.47,3.54,6.52,5.18,3q4-8.49,8-17C78.23,367,73.05,364,71.41,367.49Z" transform="translate(-16.77 -9.68)"/><path class="cls-2" d="M39.11,218.51l-17.94-5.57c-3.67-1.14-6,4.4-2.28,5.55l17.94,5.57C40.5,225.2,42.8,219.66,39.11,218.51Z" transform="translate(-16.77 -9.68)"/><path class="cls-2" d="M86.05,452l-11-9c-3-2.44-7.23,1.79-4.25,4.24l11,9C84.76,458.65,89,454.42,86.05,452Z" transform="translate(-16.77 -9.68)"/><path class="cls-2" d="M176.51,464.41a3.07,3.07,0,0,0-4.1,1.08l-6,8c-1,1.29-.21,3.35,1.08,4.1a3.07,3.07,0,0,0,4.1-1.08l6-8C178.56,467.22,177.8,465.16,176.51,464.41Z" transform="translate(-16.77 -9.68)"/><path class="cls-2" d="M152.18,215.22a10,10,0,0,1-5.71,6.15,3,3,0,0,0-1.08,4.11,3.09,3.09,0,0,0,4.11,1.08,15.93,15.93,0,0,0,8.47-9.74C159.15,213.13,153.35,211.55,152.18,215.22Z" transform="translate(-16.77 -9.68)"/><path class="cls-2" d="M271.18,428.22a10,10,0,0,1-5.71,6.15,3,3,0,0,0-1.08,4.11,3.09,3.09,0,0,0,4.11,1.08,15.93,15.93,0,0,0,8.47-9.74C278.15,426.13,272.35,424.55,271.18,428.22Z" transform="translate(-16.77 -9.68)"/><path class="cls-2" d="M249.18,42.22a10,10,0,0,1-5.71,6.15,3,3,0,0,0-1.08,4.11,3.09,3.09,0,0,0,4.11,1.08A15.93,15.93,0,0,0,255,43.82C256.15,40.13,250.35,38.55,249.18,42.22Z" transform="translate(-16.77 -9.68)"/><path class="cls-2" d="M178.7,29.7l-7,7c-2.73,2.73,1.51,7,4.24,4.24q3.51-3.49,7-7C185.68,31.21,181.43,27,178.7,29.7Z" transform="translate(-16.77 -9.68)"/><path class="cls-2" d="M95.86,89.21,90.58,75.32c-1.36-3.57-7.16-2-5.79,1.6q2.65,6.94,5.29,13.89C91.44,94.38,97.24,92.83,95.86,89.21Z" transform="translate(-16.77 -9.68)"/><path class="cls-2" d="M229.12,205.88A20.21,20.21,0,0,0,217,200c-1.61-.21-3,1.53-3,3a3.08,3.08,0,0,0,3,3,13.64,13.64,0,0,1,7.88,4.12C227.59,212.88,231.83,208.64,229.12,205.88Z" transform="translate(-16.77 -9.68)"/><path class="cls-2" d="M254.38,307.59,239.9,296.88c-3.1-2.3-6.1,2.91-3,5.18l14.47,10.71C254.46,315.07,257.45,309.87,254.38,307.59Z" transform="translate(-16.77 -9.68)"/><path class="cls-5" d="M160.83,158.22l-3.78-12.07c-1.16-3.67-7-2.1-5.79,1.6L155,159.82C156.2,163.49,162,161.92,160.83,158.22Z" transform="translate(-16.77 -9.68)"/><path class="cls-5" d="M259.74,371.39l-8-13c-2-3.28-7.22-.27-5.18,3l8,13C256.58,377.7,261.78,374.69,259.74,371.39Z" transform="translate(-16.77 -9.68)"/><path class="cls-5" d="M134.59,316.49l-4-8c-1.73-3.46-6.9-.42-5.18,3,1.33,2.67,2.67,5.34,4,8C131.14,323,136.31,319.93,134.59,316.49Z" transform="translate(-16.77 -9.68)"/><path class="cls-5" d="M116.57,413.56l-9,5.06c-3.36,1.89-.34,7.08,3,5.18l9-5.06C123,416.85,119.94,411.66,116.57,413.56Z" transform="translate(-16.77 -9.68)"/><path class="cls-5" d="M128.89,480.2q-2.49-6.49-5-13c-1.37-3.56-7.17-2-5.78,1.6q2.49,6.49,5,13C124.48,485.36,130.28,483.82,128.89,480.2Z" transform="translate(-16.77 -9.68)"/><path class="cls-5" d="M75.35,185.45l-9.19,17.91c-1.76,3.43,3.42,6.47,5.18,3l9.19-17.91C82.29,185.05,77.11,182,75.35,185.45Z" transform="translate(-16.77 -9.68)"/><path class="cls-5" d="M248.57,148.49l-8-16c-1.73-3.46-6.91-.42-5.18,3q4,8,8,16C245.12,155,250.3,151.94,248.57,148.49Z" transform="translate(-16.77 -9.68)"/><path class="cls-5" d="M49.57,41.49l-8-16c-1.73-3.46-6.91-.42-5.18,3q4,8,8,16C46.12,48,51.3,44.94,49.57,41.49Z" transform="translate(-16.77 -9.68)"/><path class="cls-5" d="M115.49,121.41l-9,6c-3.2,2.13-.2,7.33,3,5.18l9-6C121.71,124.46,118.71,119.26,115.49,121.41Z" transform="translate(-16.77 -9.68)"/><path class="cls-5" d="M140.45,37.55l-6-13c-1.62-3.5-6.8-.46-5.18,3l6,13C136.89,44.08,142.06,41,140.45,37.55Z" transform="translate(-16.77 -9.68)"/><path class="cls-5" d="M57.63,71.6l-5.07,10C50.82,85,56,88,57.75,84.59s3.37-6.64,5.06-10S59.38,68.15,57.63,71.6Z" transform="translate(-16.77 -9.68)"/><path class="cls-5" d="M72.51,291.41l-14-10c-3.14-2.25-6.14,2.95-3,5.18l14,10C72.63,298.84,75.63,293.64,72.51,291.41Z" transform="translate(-16.77 -9.68)"/><path class="cls-5" d="M244.88,249.88l-9,10c-2.58,2.86,1.65,7.12,4.24,4.24l9-10C251.7,251.26,247.47,247,244.88,249.88Z" transform="translate(-16.77 -9.68)"/><path class="cls-5" d="M177.51,265.41l-8-5c-3.28-2.05-6.29,3.14-3,5.18l8,5C177.77,272.64,180.78,267.45,177.51,265.41Z" transform="translate(-16.77 -9.68)"/><path class="cls-5" d="M261.51,98.41l-8-5c-3.28-2-6.29,3.14-3,5.18l8,5C261.77,105.64,264.78,100.45,261.51,98.41Z" transform="translate(-16.77 -9.68)"/><path class="cls-5" d="M144.87,169a3.1,3.1,0,0,0-3-3c-1.47,0-3.2,1.38-3,3l1,8a3.1,3.1,0,0,0,3,3c1.47,0,3.2-1.38,3-3Z" transform="translate(-16.77 -9.68)"/><path class="cls-5" d="M195,61.82l-8,1a3.1,3.1,0,0,0-3,3c0,1.47,1.38,3.2,3,3l8-1a3.09,3.09,0,0,0,3-3C198,63.36,196.6,61.62,195,61.82Z" transform="translate(-16.77 -9.68)"/><path class="cls-5" d="M80,404a3.06,3.06,0,0,0-3,3c-.33,3.33-.67,6.67-1,10a3,3,0,0,0,3,3,3.06,3.06,0,0,0,3-3c.33-3.33.67-6.67,1-10A3,3,0,0,0,80,404Z" transform="translate(-16.77 -9.68)"/><path class="cls-5" d="M235.51,473.41l-10-6c-3.32-2-6.34,3.19-3,5.18l10,6C235.81,480.58,238.83,475.4,235.51,473.41Z" transform="translate(-16.77 -9.68)"/><path class="cls-5" d="M277.51,284.41l-10-6c-3.32-2-6.34,3.19-3,5.18l10,6C277.81,291.58,280.83,286.4,277.51,284.41Z" transform="translate(-16.77 -9.68)"/><path class="cls-5" d="M251.59,421.49l-5-10c-1.73-3.46-6.9-.42-5.18,3l5,10C248.14,428,253.31,424.93,251.59,421.49Z" transform="translate(-16.77 -9.68)"/><path class="cls-5" d="M35.51,376.41c-1.27-.75-3.44-.41-4.1,1.08l-4,9a3.08,3.08,0,0,0,1.08,4.1c1.27.75,3.44.41,4.1-1.08l4-9A3.08,3.08,0,0,0,35.51,376.41Z" transform="translate(-16.77 -9.68)"/><path class="cls-5" d="M57.88,462.88l-8,9c-2.56,2.88,1.67,7.13,4.24,4.24l8-9C64.68,464.24,60.45,460,57.88,462.88Z" transform="translate(-16.77 -9.68)"/><path class="cls-5" d="M237.59,328.49l-7-12c-1.94-3.34-7.13-.32-5.18,3l7,12C234.35,334.85,239.54,331.83,237.59,328.49Z" transform="translate(-16.77 -9.68)"/><path class="cls-6" d="M42.21,415.24l-4,12c-1.23,3.67,4.56,5.24,5.78,1.59q2-6,4-12C49.23,413.16,43.43,411.59,42.21,415.24Z" transform="translate(-16.77 -9.68)"/><path class="cls-6" d="M200.66,478.27q-1.51-5-3-10c-1.13-3.68-6.92-2.11-5.79,1.59l3.06,10C196,483.55,201.8,482,200.66,478.27Z" transform="translate(-16.77 -9.68)"/><path class="cls-6" d="M204.59,351.49q-4-5.5-8-11c-2.25-3.1-7.46-.11-5.18,3q4,5.5,8,11C201.66,357.61,206.87,354.62,204.59,351.49Z" transform="translate(-16.77 -9.68)"/><path class="cls-6" d="M135.51,269.41c-1.27-.75-3.44-.41-4.1,1.08l-4,9a3.08,3.08,0,0,0,1.08,4.1c1.27.75,3.44.41,4.1-1.08l4-9A3.08,3.08,0,0,0,135.51,269.41Z" transform="translate(-16.77 -9.68)"/><path class="cls-6" d="M268.84,401l-12-3.06c-3.74-1-5.34,4.83-1.59,5.78l12,3.07C271,407.69,272.58,401.91,268.84,401Z" transform="translate(-16.77 -9.68)"/><path class="cls-6" d="M198.11,118.2q-1,6-2,12c-.63,3.78,5.15,5.4,5.78,1.6q1-6,2-12C204.52,116,198.74,114.4,198.11,118.2Z" transform="translate(-16.77 -9.68)"/><path class="cls-6" d="M76.59,22.49q-2.5-5.5-5-11C70,8,64.82,11,66.41,14.51q2.5,5.51,5,11C73,29,78.18,26,76.59,22.49Z" transform="translate(-16.77 -9.68)"/><path class="cls-6" d="M166,16.16l-10-1a3,3,0,0,0-3,3,3.06,3.06,0,0,0,3,3l10,1a3,3,0,0,0,3-3A3.08,3.08,0,0,0,166,16.16Z" transform="translate(-16.77 -9.68)"/><path class="cls-6" d="M181,297a3.06,3.06,0,0,0-3,3c-.33,3.33-.67,6.67-1,10a3,3,0,0,0,3,3,3.06,3.06,0,0,0,3-3c.33-3.33.67-6.67,1-10A3,3,0,0,0,181,297Z" transform="translate(-16.77 -9.68)"/><path class="cls-6" d="M146.59,436.49l-6-9c-2.13-3.2-7.33-.2-5.18,3l6,9C143.54,442.71,148.74,439.71,146.59,436.49Z" transform="translate(-16.77 -9.68)"/><path class="cls-6" d="M241.88,172.88l-10,9c-2.88,2.59,1.38,6.82,4.24,4.24l10-9C249,174.53,244.74,170.3,241.88,172.88Z" transform="translate(-16.77 -9.68)"/><path class="cls-6" d="M69.89,147.2l-3-10c-1.1-3.69-6.9-2.12-5.78,1.6l3,10C65.21,152.49,71,150.92,69.89,147.2Z" transform="translate(-16.77 -9.68)"/><path class="cls-6" d="M76.12,322.88l-9-8c-2.88-2.56-7.13,1.67-4.24,4.24l9,8C74.76,329.68,79,325.45,76.12,322.88Z" transform="translate(-16.77 -9.68)"/><path class="cls-6" d="M43.12,180.88l-9-8c-2.88-2.56-7.13,1.67-4.24,4.24l9,8C41.76,187.68,46,183.45,43.12,180.88Z" transform="translate(-16.77 -9.68)"/><path class="cls-6" d="M230.51,273.41l-7-4c-3.35-1.92-6.38,3.26-3,5.18l7,4C230.84,280.51,233.87,275.33,230.51,273.41Z" transform="translate(-16.77 -9.68)"/><path class="cls-6" d="M275.12,223.88l-14-14c-2.73-2.74-7,1.51-4.24,4.24l14,14C273.61,230.86,277.86,226.61,275.12,223.88Z" transform="translate(-16.77 -9.68)"/><path class="cls-6" d="M54.41,230.49l-8,15c-1.82,3.4,3.36,6.44,5.18,3l8-15C61.41,230.11,56.23,227.07,54.41,230.49Z" transform="translate(-16.77 -9.68)"/></svg>